<?xml version="1.0" encoding="UTF-8" standalone="no"?>
<!DOCTYPE svg PUBLIC "-//W3C//DTD SVG 1.1//EN"
 "http://www.w3.org/Graphics/SVG/1.1/DTD/svg11.dtd">
<!-- Generated by graphviz version 14.1.2 (0)
 -->
<!-- Pages: 1 -->
<svg width="576pt" height="368pt"
 viewBox="0.00 0.00 576.00 368.00" xmlns="http://www.w3.org/2000/svg" xmlns:xlink="http://www.w3.org/1999/xlink">
<g id="graph0" class="graph" transform="scale(0.136299 0.136299) rotate(0) translate(4 2694)">
<polygon fill="white" stroke="none" points="-4,4 -4,-2694 4222,-2694 4222,4 -4,4"/>
<!-- index -->
<g id="node1" class="node">
<title>index</title>
<polygon fill="none" stroke="black" points="1382,-1674 0,-1674 0,-1015 1382,-1015 1382,-1674"/>
<image xlink:href="index.png" width="1382px" height="659px" preserveAspectRatio="xMinYMin meet" x="0" y="-1674"/>
<text xml:space="preserve" text-anchor="middle" x="691" y="-1339.83" font-family="Times,serif" font-size="14.00">index</text>
</g>
<!-- comics -->
<g id="node2" class="node">
<title>comics</title>
<polygon fill="none" stroke="black" points="2800,-2690 1418,-2690 1418,-2031 2800,-2031 2800,-2690"/>
<image xlink:href="comics.png" width="1382px" height="659px" preserveAspectRatio="xMinYMin meet" x="1418" y="-2690"/>
<text xml:space="preserve" text-anchor="middle" x="2109" y="-2355.82" font-family="Times,serif" font-size="14.00">comics</text>
</g>
<!-- index&#45;&gt;comics -->
<g id="edge1" class="edge">
<title>index&#45;&gt;comics</title>
<path fill="none" stroke="black" d="M1004.15,-1674.41C1126.35,-1792.9 1272.09,-1921.95 1418,-2022.5 1418.87,-2023.1 1419.74,-2023.7 1420.62,-2024.3"/>
<polygon fill="black" stroke="black" points="1418.53,-2027.11 1428.77,-2029.85 1422.47,-2021.33 1418.53,-2027.11"/>
</g>
<!-- login -->
<g id="node3" class="node">
<title>login</title>
<polygon fill="none" stroke="black" points="2800,-2013 1418,-2013 1418,-1354 2800,-1354 2800,-2013"/>
<image xlink:href="login.png" width="1382px" height="659px" preserveAspectRatio="xMinYMin meet" x="1418" y="-2013"/>
<text xml:space="preserve" text-anchor="middle" x="2109" y="-1678.83" font-family="Times,serif" font-size="14.00">login</text>
</g>
<!-- index&#45;&gt;login -->
<g id="edge2" class="edge">
<title>index&#45;&gt;login</title>
<path fill="none" stroke="black" d="M1382.37,-1509.78C1390.46,-1511.72 1398.56,-1513.65 1406.65,-1515.59"/>
<polygon fill="black" stroke="black" points="1405.68,-1518.96 1416.22,-1517.88 1407.31,-1512.15 1405.68,-1518.96"/>
</g>
<!-- perfil -->
<g id="node5" class="node">
<title>perfil</title>
<polygon fill="none" stroke="black" points="2800,-1336 1418,-1336 1418,-677 2800,-677 2800,-1336"/>
<image xlink:href="perfil.png" width="1382px" height="659px" preserveAspectRatio="xMinYMin meet" x="1418" y="-1336"/>
<text xml:space="preserve" text-anchor="middle" x="2109" y="-1001.83" font-family="Times,serif" font-size="14.00">perfil</text>
</g>
<!-- index&#45;&gt;perfil -->
<g id="edge4" class="edge">
<title>index&#45;&gt;perfil</title>
<path fill="none" stroke="black" d="M1382.37,-1179.71C1390.46,-1177.78 1398.56,-1175.84 1406.65,-1173.91"/>
<polygon fill="black" stroke="black" points="1407.3,-1177.36 1416.22,-1171.63 1405.68,-1170.55 1407.3,-1177.36"/>
</g>
<!-- admin_dashboard -->
<g id="node6" class="node">
<title>admin_dashboard</title>
<polygon fill="none" stroke="black" points="2800,-659 1418,-659 1418,0 2800,0 2800,-659"/>
<image xlink:href="admin_dashboard.png" width="1382px" height="659px" preserveAspectRatio="xMinYMin meet" x="1418" y="-659"/>
<text xml:space="preserve" text-anchor="middle" x="2109" y="-324.82" font-family="Times,serif" font-size="14.00">admin_dashboard</text>
</g>
<!-- index&#45;&gt;admin_dashboard -->
<g id="edge5" class="edge">
<title>index&#45;&gt;admin_dashboard</title>
<path fill="none" stroke="black" d="M1005.24,-1014.84C1127.28,-896.96 1272.63,-768.64 1418,-668.5 1419.37,-667.55 1420.75,-666.61 1422.13,-665.66"/>
<polygon fill="black" stroke="black" points="1423.72,-668.81 1430.03,-660.3 1419.79,-663.02 1423.72,-668.81"/>
</g>
<!-- register -->
<g id="node4" class="node">
<title>register</title>
<polygon fill="none" stroke="black" points="4218,-2013 2836,-2013 2836,-1354 4218,-1354 4218,-2013"/>
<image xlink:href="register.png" width="1382px" height="659px" preserveAspectRatio="xMinYMin meet" x="2836" y="-2013"/>
<text xml:space="preserve" text-anchor="middle" x="3527" y="-1678.83" font-family="Times,serif" font-size="14.00">register</text>
</g>
<!-- login&#45;&gt;register -->
<g id="edge3" class="edge">
<title>login&#45;&gt;register</title>
<path fill="none" stroke="black" d="M2800.37,-1683.5C2808.37,-1683.5 2816.37,-1683.5 2824.38,-1683.5"/>
<polygon fill="black" stroke="black" points="2824.17,-1687 2834.17,-1683.5 2824.17,-1680 2824.17,-1687"/>
</g>
</g>
</svg>
